<svg width="0" height="0" class="hidden">
  <symbol fill="none" xmlns="http://www.w3.org/2000/svg" viewBox="0 0 28 28" id="closeSandwich">
    <rect width="14.8492" height="2.12131" rx="1.06065" transform="matrix(0.707103 -0.707111 0.707103 0.707111 8.00012 18.5)" fill="white"></rect>
    <rect width="14.8492" height="2.12131" rx="1.06065" transform="matrix(0.707103 0.707111 -0.707103 0.707111 9.49994 8)" fill="white"></rect>
  </symbol>
  <symbol fill="none" xmlns="http://www.w3.org/2000/svg" viewBox="0 0 20 17" id="emptyHeart">
    <path d="M10 17C9.71527 17 9.44077 16.9015 9.22684 16.7224C8.41888 16.0475 7.63992 15.4132 6.95267 14.8536L6.94916 14.8507C4.93423 13.2102 3.19427 11.7935 1.98364 10.3979C0.630341 8.83778 0 7.35852 0 5.74252C0 4.17244 0.563507 2.72395 1.58661 1.66367C2.62192 0.590857 4.04251 0 5.58716 0C6.74164 0 7.79892 0.348712 8.72955 1.03637C9.19922 1.38348 9.62494 1.80829 10 2.3038C10.3752 1.80829 10.8008 1.38348 11.2706 1.03637C12.2012 0.348712 13.2585 0 14.413 0C15.9575 0 17.3782 0.590857 18.4135 1.66367C19.4366 2.72395 20 4.17244 20 5.74252C20 7.35852 19.3698 8.83778 18.0165 10.3978C16.8059 11.7935 15.0661 13.2101 13.0515 14.8504C12.363 15.4108 11.5828 16.0461 10.773 16.7227C10.5592 16.9015 10.2846 17 10 17ZM5.58716 1.11932C4.37363 1.11932 3.25882 1.58203 2.44781 2.42232C1.62476 3.2753 1.17142 4.45439 1.17142 5.74252C1.17142 7.10165 1.70013 8.31719 2.88559 9.68375C4.03137 11.0047 5.73563 12.3923 7.70889 13.9989L7.71255 14.0018C8.4024 14.5635 9.18442 15.2003 9.99832 15.8802C10.8171 15.199 11.6003 14.5612 12.2916 13.9986C14.2647 12.392 15.9688 11.0047 17.1146 9.68375C18.2999 8.31719 18.8286 7.10165 18.8286 5.74252C18.8286 4.45439 18.3752 3.2753 17.5522 2.42232C16.7413 1.58203 15.6264 1.11932 14.413 1.11932C13.524 1.11932 12.7078 1.38931 11.9872 1.92171C11.3449 2.39637 10.8975 2.99642 10.6352 3.41627C10.5003 3.63217 10.2629 3.76105 10 3.76105C9.73709 3.76105 9.49966 3.63217 9.36478 3.41627C9.10263 2.99642 8.65524 2.39637 8.01285 1.92171C7.29218 1.38931 6.47598 1.11932 5.58716 1.11932Z" fill="#FF6767"></path>
  </symbol>
  <symbol fill="none" xmlns="http://www.w3.org/2000/svg" viewBox="0 0 20 17" id="heart">
    <path d="M14.4131 1C15.697 1.00002 16.854 1.48864 17.6934 2.3584C18.524 3.21921 19 4.4127 19 5.74219C19 7.05682 18.5013 8.31217 17.2607 9.74219C16.4048 10.729 15.2565 11.7395 13.876 12.8828L12.4199 14.0752C11.7323 14.6352 10.9471 15.274 10.1318 15.9551L10.1309 15.9561C10.1014 15.9806 10.0553 16 10 16C9.94461 16 9.89811 15.9801 9.86816 15.9551L8.67676 14.9697C8.29277 14.6549 7.92483 14.3551 7.58105 14.0752H7.58008C5.54193 12.4158 3.88057 11.0579 2.73926 9.74219H2.73828C1.4981 8.31222 1 7.0564 1 5.74219C1.00008 4.41281 1.47544 3.21915 2.30566 2.3584C3.14503 1.48862 4.3029 1.00002 5.58691 1C6.52686 1 7.37578 1.28004 8.13477 1.84082C8.52271 2.12744 8.88202 2.48299 9.20312 2.90723L10 3.96094L10.7969 2.90723C11.1182 2.48279 11.4774 2.12747 11.8652 1.84082L11.8643 1.83984C12.6234 1.27901 13.4732 1 14.4131 1Z" fill="#FF6767" stroke="#FF6767" stroke-width="2"></path>
  </symbol>
  <symbol fill="none" xmlns="http://www.w3.org/2000/svg" viewBox="0 0 10 10" id="link">
    <path d="M9.54527 0H5.90891C5.65787 0 5.45436 0.203515 5.45436 0.45455C5.45436 0.705585 5.65787 0.9091 5.90891 0.9091H8.44791L3.76934 5.58768C3.59186 5.76516 3.59186 6.05298 3.76934 6.2305C3.85807 6.31923 3.9744 6.36362 4.09073 6.36362C4.20705 6.36362 4.3234 6.31923 4.41211 6.23048L9.09074 1.55191V4.09091C9.09074 4.34194 9.29425 4.54546 9.54529 4.54546C9.79632 4.54546 9.99984 4.34194 9.99984 4.09091V0.45455C9.99982 0.203515 9.7963 0 9.54527 0Z" fill="#8EA7FF"></path>
    <path d="M7.72725 4.54538C7.47622 4.54538 7.2727 4.74889 7.2727 4.99993V9.09084H0.90908V2.7272H4.99999C5.25103 2.7272 5.45454 2.52368 5.45454 2.27265C5.45454 2.02161 5.25103 1.81812 4.99999 1.81812H0.45455C0.203515 1.81812 0 2.02163 0 2.27267V9.54539C0 9.7964 0.203515 9.99992 0.45455 9.99992H7.72727C7.97831 9.99992 8.18182 9.7964 8.18182 9.54537V4.99993C8.1818 4.74889 7.97829 4.54538 7.72725 4.54538Z" fill="#8EA7FF"></path>
  </symbol>
  <symbol fill="none" xmlns="http://www.w3.org/2000/svg" viewBox="0 0 20 19" id="message">
    <path d="M17.2504 0H2.74963C1.23352 0 0 1.23328 0 2.74963V11.6238C0 13.1367 1.22815 14.368 2.73987 14.3734V18.4004L8.5271 14.3734H17.2504C18.7665 14.3734 20 13.1399 20 11.6238V2.74963C20 1.23328 18.7665 0 17.2504 0ZM18.8281 11.6238C18.8281 12.4937 18.1204 13.2015 17.2504 13.2015H8.15942L3.91174 16.1573V13.2015H2.74963C1.87964 13.2015 1.17188 12.4937 1.17188 11.6238V2.74963C1.17188 1.87952 1.87964 1.17188 2.74963 1.17188H17.2504C18.1204 1.17188 18.8281 1.87952 18.8281 2.74963V11.6238Z" fill="#ABABAB"></path>
    <path d="M5.35291 4.14075H14.6471V5.31262H5.35291V4.14075Z" fill="#ABABAB"></path>
    <path d="M5.35291 6.64075H14.6471V7.81262H5.35291V6.64075Z" fill="#ABABAB"></path>
    <path d="M5.35291 9.14075H14.6471V10.3126H5.35291V9.14075Z" fill="#ABABAB"></path>
  </symbol>
  <symbol fill="none" xmlns="http://www.w3.org/2000/svg" viewBox="0 0 28 28" id="Sandwich">
    <rect x="7" y="16" width="14" height="2" rx="1" fill="white"></rect>
    <rect x="7" y="10" width="14" height="2" rx="1" fill="white"></rect>
  </symbol>
</svg>